<svg width="571" height="95" viewBox="0 0 571 95" fill="none" xmlns="http://www.w3.org/2000/svg">
<path d="M6 47C77.7 25.2 175.8 11.7 284 11.7C394.5 11.7 494.4 25.7 566.5 48.4C498.5 21.8 397.4 5 284.5 5C173.5 5.1 74 21.3 6 47Z" fill="#006838"/>
<path d="M12.9 63.8002V72.4002H32.4C38 72.4002 39.6 74.1002 39.6 79.7002V83.2002C39.6 88.9002 38 90.5002 32.4 90.5002H14.3C8.7 90.5002 7 88.9002 7 83.2002V82.4002L11.8 81.3002V86.3002H34.8V77.0002H15.5C10 77.0002 8.3 75.4002 8.3 69.7002V67.0002C8.3 61.2002 10 59.7002 15.5 59.7002H32C37.2 59.7002 39.3 61.1002 39.3 66.5002V67.2002L34.9 68.5002V64.0002H12.9V63.8002Z" fill="#262262"/>
<path d="M52.3002 59.6001H77.3002C81.8002 59.6001 83.8002 61.3001 83.8002 65.6001V72.5001C83.8002 76.8001 81.8002 78.5001 77.3002 78.5001H57.4002V90.6001H52.2002V59.6001H52.3002ZM57.4002 63.6001V74.4001H75.2002C77.5002 74.4001 78.6002 73.8001 78.6002 71.2001V66.9001C78.6002 64.3001 77.6002 63.7001 75.2002 63.7001H57.4002V63.6001Z" fill="#262262"/>
<path d="M93.3998 59.6001H123.2V63.7001H98.4998V72.3001H113.6V76.4001H98.4998V86.2001H123.4V90.5001H93.2998V59.6001H93.3998Z" fill="#262262"/>
<path d="M137.5 63.8002V86.2002H159V78.5002L164.2 79.6002V83.3002C164.2 89.1002 162.6 90.6002 157 90.6002H139.7C134.1 90.6002 132.4 89.0002 132.4 83.3002V67.0002C132.4 61.3002 134.1 59.7002 139.7 59.7002H157C162.6 59.7002 164.2 61.3002 164.2 67.0002V69.9002L159 70.9002V63.9002H137.5V63.8002Z" fill="#262262"/>
<path d="M174.8 59.6001H180V90.6001H174.8V59.6001Z" fill="#262262"/>
<path d="M193 59.6001H222.5V63.8001H198.2V73.9001H212.1V78.0001H198.2V90.5001H193V59.6001Z" fill="#262262"/>
<path d="M228.2 59.6001H233.4V90.6001H228.2V59.6001Z" fill="#262262"/>
<path d="M251.2 63.8002V86.2002H272.7V78.5002L277.9 79.6002V83.3002C277.9 89.1002 276.3 90.6002 270.7 90.6002H253.4C247.8 90.6002 246.1 89.0002 246.1 83.3002V67.0002C246.1 61.3002 247.8 59.7002 253.4 59.7002H270.7C276.3 59.7002 277.9 61.3002 277.9 67.0002V69.9002L272.7 70.9002V63.9002H251.2V63.8002Z" fill="#262262"/>
<path d="M307.8 59.6001H339.5V64.9001H315V71.8001H329.3V77.1001H315V84.8001H339.8V90.6001H307.8V59.6001Z" fill="#006838"/>
<path d="M350 59.6001H354.9L376.7 77.8001C378 78.8001 379.2 79.9001 380.2 81.2001C380 78.6001 379.9 76.8001 379.9 75.9001V59.6001H386.4V90.6001H381.5L358.8 71.4001C357.9 70.6001 357.1 69.8001 356.2 68.9001C356.4 71.3001 356.5 72.9001 356.5 73.8001V90.5001H350V59.6001V59.6001Z" fill="#006838"/>
<path d="M399.199 59.6001H430.899V64.9001H406.399V71.8001H420.699V77.1001H406.399V84.8001H431.199V90.6001H399.199V59.6001Z" fill="#006838"/>
<path d="M441.5 59.6001H468C472.7 59.6001 475 61.3001 475 65.6001V72.9001C475 77.2001 472.8 78.9001 468 78.9001H463.9L478.2 90.6001H467.9L455.4 78.9001H448.6V90.6001H441.5V59.6001V59.6001ZM448.6 64.9001V73.5001H464.8C467 73.5001 468 73.1001 468 71.0001V67.4001C468 65.4001 467 64.9001 464.8 64.9001H448.6Z" fill="#006838"/>
<path d="M493.2 65.1001V84.7001H515.7V77.8001H503.9V72.5001H522.7V83.2001C522.7 89.0001 520.8 90.5001 515 90.5001H493.6C487.8 90.5001 485.9 89.0001 485.9 83.2001V66.9001C485.9 61.1001 487.8 59.6001 493.6 59.6001H515C520.6 59.6001 522.7 61.0001 522.7 66.6001C522.7 66.8001 522.7 67.1001 522.7 67.3001L515.7 68.6001V65.1001H493.2Z" fill="#006838"/>
<path d="M542.5 76.7001L526.4 59.6001H536L546.6 71.5001L557.3 59.6001H565.8L549.8 76.5001V90.5001H542.5V76.7001V76.7001Z" fill="#006838"/>
</svg>
